<?xml version="1.0" encoding="UTF-8"?>
<svg width="195px" height="146px" viewBox="0 0 195 146" version="1.1" xmlns="http://www.w3.org/2000/svg" xmlns:xlink="http://www.w3.org/1999/xlink">
    <title>切片</title>
    <g id="页面-1" stroke="none" stroke-width="1" fill="none" fill-rule="evenodd">
        <g id="一体机/生产任务备份-2" transform="translate(-651.000000, -346.000000)">
            <g id="编组" transform="translate(632.000000, 346.000000)">
                <g id="暂无任务" transform="translate(19.000000, 0.000000)">
                    <g id="编组-9" transform="translate(6.067292, 109.211252)" fill="#EEF1F5">
                        <path d="M91.0093767,0 C141.273122,0 182.018753,5.43294132 182.018753,12.1345836 C182.018753,18.8362258 141.273122,24.2691671 91.0093767,24.2691671 C40.7463294,24.2691671 0,18.8362258 0,12.1345836 C0,5.43294132 40.7463294,0 91.0093767,0" id="Fill-1"></path>
                    </g>
                    <g id="编组-8" transform="translate(25.482625, 21.842250)">
                        <g id="编组-5">
                            <g id="编组-4" transform="translate(31.549917, 0.000000)">
                                <g id="编组-6">
                                    <path d="M18.201,0 L18.2018753,4.06729178 C18.2018753,5.17186128 19.0973058,6.06729178 20.2018753,6.06729178 L21.0557088,6.06729178 C22.1602783,6.06729178 23.0557088,5.17186128 23.0557088,4.06729178 L23.055,0 L37.617,0 L37.617209,4.06729178 C37.617209,5.12165358 38.4330868,5.9854569 39.4679467,6.06180605 L39.617209,6.06729178 L40.4710425,6.06729178 C41.575612,6.06729178 42.4710425,5.17186128 42.4710425,4.06729178 L42.471,0 L57.032,0 L57.0325427,4.06729178 C57.0325427,5.12165358 57.8484205,5.9854569 58.8832804,6.06180605 L59.0325427,6.06729178 L59.8863762,6.06729178 C60.9909457,6.06729178 61.8863762,5.17186128 61.8863762,4.06729178 L61.886,0 L76.0882515,0 C78.2973905,-4.05812251e-16 80.0882515,1.790861 80.0882515,4 L80.0882515,93.0766685 C80.0882515,95.2858075 78.2973905,97.0766685 76.0882515,97.0766685 L4,97.0766685 C1.790861,97.0766685 1.02344917e-15,95.2858075 0,93.0766685 L0,4 C-2.705415e-16,1.790861 1.790861,-1.06172613e-15 4,0 L18.201,0 Z" id="形状结合" fill="#DFE3E9"></path>
                                    <path d="M0,72.8075014 L80.0882515,72.8075014 L80.0882515,93.0766685 C80.0882515,95.2858075 78.2973905,97.0766685 76.0882515,97.0766685 L4,97.0766685 C1.790861,97.0766685 1.02344917e-15,95.2858075 0,93.0766685 L0,72.8075014 L0,72.8075014 Z" id="矩形" fill="#8F959E"></path>
                                </g>
                                <g id="编组" transform="translate(8.494208, 14.561500)" fill-rule="nonzero">
                                    <rect id="矩形" fill="#FFFFFF" x="0" y="0" width="63.0998345" height="21.8422504" rx="2"></rect>
                                    <g id="编组-3" transform="translate(7.280750, 3.640375)">
                                        <circle id="椭圆形" fill="#FFD200" cx="7.28075014" cy="7.28075014" r="7.28075014"></circle>
                                        <path d="M9.35484731,4.34153653 C9.75739521,3.82025605 10.5063061,3.72400428 11.0275866,4.12655218 C11.5087686,4.49813485 11.6277959,5.16484338 11.3266457,5.67521642 L11.2425709,5.79929143 L7.39269971,10.7846925 C6.92898754,11.3851778 6.04273745,11.398389 5.55678318,10.8476684 L5.46517341,10.730012 L3.61310603,8.02781537 C3.2407573,7.48455248 3.37931061,6.7423026 3.92257351,6.36995387 C4.42404695,6.02624735 5.09507143,6.11786565 5.48820103,6.56128552 L5.58043501,6.67942135 L6.50646574,8.03052425 L9.35484731,4.34153653 Z" id="路径" fill="#FFFFFF"></path>
                                        <rect id="矩形" fill="#DFE3E9" x="20.0569789" y="2.74470314" width="28.9347576" height="3.2062019" rx="1.34428108"></rect>
                                        <rect id="矩形" fill="#DFE3E9" x="20.0569789" y="9.15710693" width="18.1320433" height="3.2062019" rx="1.34428108"></rect>
                                    </g>
                                </g>
                                <g id="编组-2" transform="translate(8.494208, 42.471042)" fill-rule="nonzero">
                                    <rect id="矩形" fill="#FFFFFF" x="0" y="0" width="63.0998345" height="21.8422504" rx="2"></rect>
                                    <g id="编组-3" transform="translate(7.280750, 3.640375)">
                                        <circle id="椭圆形" fill="#FFD200" cx="7.28075014" cy="7.28075014" r="7.28075014"></circle>
                                        <path d="M9.35484731,4.34153653 C9.75739521,3.82025605 10.5063061,3.72400428 11.0275866,4.12655218 C11.5087686,4.49813485 11.6277959,5.16484338 11.3266457,5.67521642 L11.2425709,5.79929143 L7.39269971,10.7846925 C6.92898754,11.3851778 6.04273745,11.398389 5.55678318,10.8476684 L5.46517341,10.730012 L3.61310603,8.02781537 C3.2407573,7.48455248 3.37931061,6.7423026 3.92257351,6.36995387 C4.42404695,6.02624735 5.09507143,6.11786565 5.48820103,6.56128552 L5.58043501,6.67942135 L6.50646574,8.03052425 L9.35484731,4.34153653 Z" id="路径" fill="#FFFFFF"></path>
                                        <rect id="矩形" fill="#DFE3E9" x="20.0569789" y="2.74470314" width="28.9347576" height="3.2062019" rx="1.34428108"></rect>
                                        <rect id="矩形" fill="#DFE3E9" x="20.0569789" y="9.15710693" width="18.1320433" height="3.2062019" rx="1.34428108"></rect>
                                    </g>
                                </g>
                            </g>
                            <g id="编组-7" transform="translate(0.000000, 72.807501)">
                                <path d="M8.33875221,14.0309705 C8.33875221,14.0309705 1.49289424,12.2607147 0,6.22798935 C0,6.22798935 10.6140669,4.19884963 10.9211252,14.5615003 L8.33875221,14.0309705 Z" id="Fill-3" fill="#FFD500"></path>
                                <path d="M8.02880255,13.3357574 C8.02880255,13.3357574 3.96103468,6.44236943 7.54121641,0 C7.54121641,0 14.4018209,4.66754433 11.353998,13.3480419 L8.02880255,13.3357574 Z" id="Fill-5" fill="#FFD500"></path>
                                <path d="M9.70766685,14.5418611 C9.70766685,14.5418611 12.0882335,6.39551226 19.2855486,4.85383343 C19.2855486,4.85383343 20.635423,10.1695159 14.6283912,14.5615003 L9.70766685,14.5418611 Z" id="Fill-7" fill="#FFD500"></path>
                                <polygon id="Fill-9" fill="#8F959E" points="4.85383343 13.3480419 6.18084251 23.0151784 14.5412453 23.0557088 15.7749586 13.393802"></polygon>
                            </g>
                        </g>
                        <g id="编组-2" transform="translate(82.515168, 33.976834)">
                            <g id="编组-3">
                                <g id="编组-29" transform="translate(29.123001, 38.830667) scale(-1, 1) translate(-29.123001, -38.830667) translate(0.000000, 2.426917)">
                                    <path d="M15.9274135,9.78338602 C23.3469981,-0.644389385 37.8802832,-3.12864879 48.3878937,4.23456309 C58.8965851,11.6009929 61.3982427,26.0238565 53.9775772,36.4505592 C47.5501898,45.4816168 35.7880558,48.5533639 25.9273529,44.4293214 L21.4153074,50.768812 C22.1186092,51.4776931 22.2323957,52.6061753 21.633668,53.4475704 L8.48280681,71.9207636 C7.80996954,72.8663053 6.491857,73.0910257 5.53907619,72.4233005 L0.893526639,69.1661962 C-0.0592541725,68.4979347 -0.285694989,67.1903733 0.387142283,66.2453679 L13.5380035,47.7716383 C14.1333745,46.9349603 15.2335653,46.662677 16.139136,47.0736966 L20.3669522,41.1368722 C10.8367708,33.5545785 8.78642391,19.8193981 15.9274135,9.78338602 Z M43.9223079,10.5095707 C36.906966,5.59253908 27.2029772,7.250321 22.2488412,14.2123615 C17.2941648,21.1744019 18.9646387,30.8041251 25.9799806,35.7211567 C32.994782,40.6381882 42.69769,38.9804063 47.6529068,32.0199748 C52.6081236,25.0563254 50.9376497,15.4266022 43.9223079,10.5095707 Z" id="形状结合" fill-opacity="0.1" fill="#000000"></path>
                                    <g id="编组-27" transform="translate(37.105872, 22.629269) scale(-1, 1) translate(-37.105872, -22.629269) translate(27.396614, 20.190513)" fill="#CECECE">
                                        <path d="M2.56164552,1.39342711 C2.47409561,1.29098895 2.36060498,1.21429441 2.23252271,1.17031573 C2.10768302,1.12472807 1.97635816,1.10059342 1.84287156,1.09952077 C1.76829201,1.08933059 1.6926316,1.08933059 1.61805204,1.09952077 C1.54401292,1.11561053 1.47213553,1.14135416 1.40404115,1.17567898 C1.3397298,1.21054014 1.28352492,1.25934575 1.23974996,1.3172689 C1.11220812,1.48889304 1.14895746,1.73077581 1.32189556,1.85788494 L1.32729987,1.86163921 C1.44565438,1.9415517 1.57481752,2.00376545 1.7115467,2.04667149 L2.21090545,2.19898791 C2.38600527,2.2472572 2.55353904,2.31858848 2.70972376,2.41137278 C2.86320632,2.50576606 2.99453118,2.63233886 3.09343016,2.78143733 C3.20529949,2.97076021 3.25880221,3.18850834 3.24745315,3.40786544 C3.2517766,3.63204947 3.20313776,3.85355187 3.10477922,4.05574656 C3.01452715,4.23595191 2.88536401,4.39363159 2.72647714,4.51805909 C2.56218595,4.64248659 2.3762775,4.73419824 2.17793912,4.79051241 C1.96122607,4.84682658 1.73802784,4.87632448 1.51428919,4.87739713 C1.23596694,4.88007876 0.959806422,4.83610007 0.69661626,4.74707005 C0.438830414,4.64945882 0.202121397,4.5035783 0,4.31640072 L0.702020575,3.5440921 C0.804162137,3.67870978 0.937648729,3.78704752 1.09167172,3.85945145 C1.24029039,3.93078274 1.40350072,3.96832552 1.56887277,3.96832552 C1.6515588,3.96725287 1.73424482,3.95813533 1.81584999,3.94097292 C1.89259127,3.92220153 1.96608996,3.89270363 2.03472476,3.8540882 C2.09795525,3.8181544 2.15199841,3.77042143 2.19415207,3.71249829 C2.23468443,3.64921188 2.25576126,3.57519897 2.2546804,3.50011341 C2.26008472,3.37568591 2.20225854,3.25769432 2.10065741,3.18475406 C1.98176247,3.09894199 1.85043761,3.03136498 1.7115467,2.9830957 L1.20137932,2.81951644 C1.02303691,2.76749287 0.851720113,2.69455261 0.691211945,2.60176831 C0.537188955,2.50844769 0.404783226,2.38402019 0.301560801,2.23706702 C0.191312767,2.057398 0.137810044,1.8487674 0.148078243,1.63852783 C0.141052633,1.41917073 0.189691472,1.20195893 0.290752171,1.00673647 C0.380463807,0.828140102 0.510167377,0.672069401 0.669054251,0.549787202 C0.833345441,0.425896027 1.01925389,0.333111727 1.21759227,0.277333882 C1.42619884,0.216729108 1.64237146,0.185622233 1.85962494,0.185085907 C2.11038518,0.185085907 2.35952412,0.222092362 2.60001616,0.29395997 C2.83780604,0.365291253 3.05722124,0.488646103 3.24204883,0.653298011 L2.56164552,1.39342711 Z" id="Fill-29"></path>
                                        <path d="M5.96252718,2.8903114 C5.96955279,2.7385313 5.91172661,2.58996915 5.80364031,2.48216774 C5.69339227,2.36471247 5.53720756,2.30035342 5.37561852,2.30786197 C5.27942171,2.30571667 5.18376533,2.32395174 5.09567498,2.36256717 C5.02163586,2.39313772 4.95354149,2.43550743 4.89301315,2.48753099 C4.83464655,2.53901824 4.787629,2.60176831 4.75574354,2.67256327 C4.72656024,2.74228558 4.70818557,2.81576216 4.70115996,2.8903114 L5.96252718,2.8903114 Z M6.78506399,4.24077884 C6.63212186,4.43278334 6.43432392,4.58563609 6.2095044,4.6870016 C5.98036142,4.78997608 5.73176291,4.84414495 5.47992181,4.84522311 C5.2518597,4.84575393 5.02541888,4.8071385 4.81086756,4.73044396 C4.6076653,4.659649 4.42067599,4.54809331 4.26232954,4.40382177 C4.10344267,4.26437716 3.97806255,4.09114404 3.89429566,3.89753056 C3.71919584,3.47383347 3.71919584,2.99864913 3.89429566,2.57495204 C3.97914341,2.38187488 4.10452353,2.20917809 4.26232954,2.06866083 C4.42067599,1.92438929 4.6076653,1.8128336 4.81086756,1.74203864 C5.02541888,1.6653441 5.2518597,1.62672867 5.47992181,1.62780132 C5.68690709,1.62458337 5.89227108,1.6631988 6.08304341,1.74203864 C6.25868367,1.81336992 6.41486838,1.92546194 6.53862721,2.06866083 C6.66887121,2.21615033 6.76777018,2.38831079 6.82937938,2.57495204 C6.89963548,2.78948221 6.93476353,3.01312992 6.93314223,3.23892293 L6.93314223,3.53282927 L4.7395306,3.53282927 C4.77141606,3.70069913 4.86004683,3.85247922 4.99191213,3.96296226 C5.12107527,4.0734453 5.28698775,4.13136845 5.45776412,4.12654152 C5.59881675,4.13136845 5.73770766,4.09597097 5.85822389,4.02249439 C5.96685063,3.9511631 6.06142615,3.86106043 6.13816743,3.75594065 L6.78506399,4.24077884 Z" id="Fill-31"></path>
                                        <path d="M9.20987224,3.42400883 L8.94127776,3.42400883 C8.83481275,3.42883576 8.72996903,3.44707083 8.6283679,3.47871403 C8.53541367,3.50284867 8.44948506,3.54736368 8.37598637,3.60904111 C8.3046494,3.67018221 8.26627877,3.76082121 8.27168308,3.85414183 C8.26627877,3.96087059 8.32410494,4.06062712 8.42030176,4.10996906 C8.51163469,4.16360161 8.61539754,4.19202686 8.72186256,4.19149053 C8.81265506,4.19309951 8.90344756,4.1802277 8.99045703,4.15341142 C9.07422392,4.12927678 9.15366736,4.09280665 9.22608519,4.04453736 C9.36929955,3.94907143 9.452526,3.7860285 9.44604083,3.61440436 L9.44604083,3.412746 L9.20987224,3.42400883 Z M9.44604083,4.38188606 L9.44604083,4.38188606 C9.34768228,4.54278369 9.19960404,4.66721119 9.02342336,4.73586085 C8.71483695,4.86189732 8.37220335,4.87905974 8.05226787,4.78466646 C7.9225643,4.74980531 7.80150764,4.68812788 7.69612349,4.60499744 C7.59506279,4.52347597 7.51291719,4.42103782 7.45455059,4.30626417 C7.33025133,4.03434718 7.33025133,3.7227421 7.45455059,3.45136143 C7.51940237,3.33015188 7.61127573,3.22610475 7.7236855,3.14619226 C7.84095914,3.06520712 7.97066271,3.00299337 8.10739189,2.96115999 C8.25438927,2.91664497 8.40462924,2.88392912 8.55703094,2.86301243 C8.70997306,2.84263206 8.86345562,2.82976025 9.01801904,2.82493333 L9.44604083,2.82493333 C9.452526,2.67154425 9.38497206,2.52405476 9.26499626,2.4280525 C9.14610132,2.32615067 8.99369962,2.2719818 8.83697448,2.27519976 C8.6883558,2.27359078 8.54189885,2.30684296 8.40895269,2.37334731 C8.27654696,2.43985166 8.15873289,2.53263596 8.06361694,2.6452643 L7.55344956,2.12824659 C7.7323324,1.96091305 7.94580286,1.83487657 8.17872886,1.75818204 C8.41489744,1.67558792 8.66349595,1.63375454 8.91371575,1.63321821 C9.14826304,1.62785496 9.3822699,1.66271611 9.6049277,1.73672902 C9.77246148,1.79840644 9.91999929,1.90406256 10.0324091,2.04136187 C10.1458997,2.18724238 10.2248027,2.3561849 10.2631733,2.53692657 C10.3047865,2.7611106 10.3247825,2.98851258 10.3237017,3.21698722 L10.3237017,4.77447628 L9.44604083,4.77447628 L9.44604083,4.38188606 Z" id="Fill-33"></path>
                                        <path d="M10.8995315,1.70374501 L11.8539336,1.70374501 L11.8539336,2.19394645 C11.9414835,2.02768557 12.0652423,1.88234138 12.2160227,1.76917671 C12.3797735,1.66727488 12.5710862,1.61793294 12.7645607,1.62758679 L12.9288519,1.62758679 L13.0828749,1.65493939 L13.0828749,2.52003232 C13.0180231,2.4985793 12.9520905,2.48248954 12.885077,2.4712267 C12.8153613,2.46586345 12.746186,2.46586345 12.6770108,2.4712267 C12.5283921,2.46639977 12.3808543,2.49214339 12.2430443,2.54738491 C12.1430644,2.59297257 12.0592976,2.66644916 12.0020118,2.75976978 C11.9377005,2.85791734 11.898249,2.97000935 11.8868999,3.0869283 C11.8777126,3.22422761 11.8777126,3.36206325 11.8868999,3.49989888 L11.8868999,4.77957137 L10.8995315,4.77957137 L10.8995315,1.70374501 Z" id="Fill-35"></path>
                                        <path d="M15.484985,2.72169068 C15.3752774,2.57259221 15.1996372,2.48570749 15.0131883,2.48785279 C14.8089052,2.48088056 14.6105668,2.5575751 14.4646503,2.69970134 C14.2020005,3.0300778 14.2020005,3.49614461 14.4646503,3.8270574 C14.6105668,3.96918364 14.8089052,4.0464145 15.0131883,4.03890594 C15.1099255,4.04266022 15.2050415,4.01798925 15.2877275,3.96811099 C15.3628475,3.9262776 15.4293206,3.87103608 15.484985,3.80560438 L16.1102643,4.46367569 C15.9659691,4.61009253 15.7870863,4.71843027 15.5892883,4.77957137 C15.4028394,4.83749452 15.2088245,4.86913772 15.0131883,4.87235567 C14.7851262,4.87396465 14.5586854,4.83481289 14.344134,4.75758203 C14.1420126,4.68571442 13.9550233,4.57469505 13.795596,4.43149616 C13.6399517,4.28990625 13.5167333,4.11720946 13.4335069,3.92466863 C13.1573464,3.2998495 13.3016416,2.57044691 13.795596,2.0957989 C13.9550233,1.95206368 14.1420126,1.84104432 14.344134,1.76917671 C14.5586854,1.69194585 14.7851262,1.65333041 15.0131883,1.65493939 C15.2088245,1.65815734 15.4028394,1.68926422 15.5892883,1.74718737 C15.7870863,1.80832847 15.9659691,1.91720253 16.1102643,2.06308305 L15.484985,2.72169068 Z" id="Fill-37"></path>
                                        <path d="M17.4102724,0 L17.4102724,2.12277607 C17.4351323,2.05627171 17.4718816,1.99566694 17.51998,1.94364337 C17.5729423,1.88250227 17.6334706,1.82940605 17.7010246,1.78542737 C17.7820893,1.73769441 17.8690988,1.6996153 17.9593508,1.67119005 C18.0604115,1.64222848 18.1657957,1.62774769 18.2717203,1.62774769 C18.4738417,1.61916648 18.6748822,1.65831824 18.8586289,1.74198501 C19.0007624,1.80848936 19.1212787,1.91414547 19.2039647,2.04661786 C19.2915146,2.18606247 19.3493408,2.34159684 19.3742006,2.50410345 C19.4033839,2.69503531 19.418516,2.88757614 19.418516,3.08118962 L19.418516,4.76846943 L18.4635735,4.76846943 L18.4635735,3.26622189 C18.4689778,3.17504657 18.4689778,3.08440757 18.4635735,2.9943049 C18.4597905,2.90473855 18.4414158,2.81624485 18.4089899,2.73257809 C18.3787257,2.6548109 18.3273847,2.58723389 18.2603712,2.5368193 C18.1782256,2.48211411 18.0798671,2.45529784 17.9809681,2.46066109 C17.8761244,2.45637049 17.772902,2.47889616 17.6794073,2.52555647 C17.6064491,2.56899883 17.5480824,2.63067625 17.5097118,2.70522549 C17.4643156,2.78031105 17.4362131,2.86344149 17.4270258,2.95032621 C17.4216215,3.04847377 17.4216215,3.14662132 17.4270258,3.24423255 L17.4270258,4.76846943 L16.4726237,4.76846943 L16.4726237,0 L17.4102724,0 Z" id="Fill-39"></path>
                                    </g>
                                </g>
                                <g id="编组-29" transform="translate(31.549917, 36.403751) scale(-1, 1) translate(-31.549917, -36.403751) translate(2.426917, 0.000000)">
                                    <polygon id="Fill-19" fill="#8F959E" points="22.0137535 38.8230484 27.2867441 42.5199397 20.4821705 52.0794042 15.2086395 48.3819766"></polygon>
                                    <path d="M21.1272836,50.5262057 C22.079524,51.1939309 22.3065053,52.5020286 21.633668,53.4475704 L8.48280681,71.9207636 C7.80996954,72.8663053 6.491857,73.0910257 5.53907619,72.4233005 L0.893526639,69.1661962 C-0.0592541725,68.4979347 -0.285694989,67.1903733 0.387142283,66.2453679 L13.5380035,47.7716383 C14.2108407,46.8260966 15.5284128,46.6013762 16.4811937,47.2691014 L21.1272836,50.5262057 Z" id="Fill-23" fill="#FFD500"></path>
                                    <path d="M25.9799806,35.7211567 C18.9646387,30.8041251 17.2941648,21.1744019 22.2488412,14.2123615 C27.2029772,7.250321 36.906966,5.59253908 43.9223079,10.5095707 C50.9376497,15.4266022 52.6081236,25.0563254 47.6534472,32.0183659 C47.6534472,32.0189022 47.6534472,32.0194385 47.6529068,32.0199748 C42.69769,38.9804063 32.994782,40.6381882 25.9799806,35.7211567 M48.3878937,4.23456309 C37.8802832,-3.12864879 23.3469981,-0.644389385 15.9274135,9.78338602 C8.50728836,20.2116978 11.0111077,34.634025 21.5187182,41.9972369 C32.0252479,49.3604488 46.5569116,46.877262 53.9775772,36.4505592 C61.3982427,26.0238565 58.8965851,11.6009929 48.3900554,4.23617206 C48.3889746,4.23563574 48.3884341,4.23509941 48.3878937,4.23456309" id="Fill-25" fill="#FFD500"></path>
                                    <path d="M34.9485502,7.68635358 C43.5370883,7.68635358 50.4994678,14.5958341 50.4994678,23.1191179 C50.4994678,31.6424017 43.5370883,38.5518823 34.9485502,38.5518823 C26.3600121,38.5518823 19.3976325,31.6424017 19.3976325,23.1191179 C19.3976325,14.5958341 26.3600121,7.68635358 34.9485502,7.68635358" id="Fill-27" fill="#FFFFFF"></path>
                                </g>
                            </g>
                            <path d="M27.3054625,26.6960838 L27.3054625,26.3743335 C27.3054625,25.8227615 27.4246887,25.3401361 27.6631413,24.8804927 C27.8777485,24.4668138 28.1877368,24.0761169 28.6169513,23.7313844 C29.7615234,22.7661335 30.4530357,22.145615 30.667643,21.9157933 C31.239929,21.180364 31.5499173,20.2380952 31.5499173,19.0889869 C31.5499173,17.6870748 31.0730122,16.5839309 30.1192022,15.7795551 C29.1653921,14.9521971 27.9015938,14.5615003 26.3516524,14.5615003 C24.5871038,14.5615003 23.2040792,15.0441258 22.1787334,16.0093767 C21.1295423,16.9746277 20.6287921,18.3075933 20.6287921,20.0082736 L23.3471507,20.0082736 C23.3471507,19.0430226 23.5379127,18.2846111 23.943282,17.7560213 C24.3963418,17.1125207 25.1355446,16.8137525 26.1847357,16.8137525 C26.9954742,16.8137525 27.639296,17.020592 28.0923558,17.4572532 C28.5215703,17.8939143 28.7600228,18.4914506 28.7600228,19.2498621 C28.7600228,19.8244163 28.5454156,20.3759882 28.116201,20.8815959 L27.830058,21.2033462 C26.2801167,22.5363118 25.3501519,23.5015628 25.0401636,24.1220813 C24.7063301,24.7425997 24.5632586,25.5010112 24.5632586,26.3743335 L24.5632586,26.6960838 L27.3054625,26.6960838 Z M26.0776115,31.5499173 C26.5943099,31.5499173 27.0170631,31.3811582 27.3693575,31.0436399 C27.7216519,30.7061217 27.9095422,30.2480613 27.9095422,29.7176755 C27.9095422,29.1872897 27.7216519,28.7533377 27.3928438,28.4158195 C27.0405494,28.0783013 26.5943099,27.9095422 26.0776115,27.9095422 C25.5609131,27.9095422 25.1381599,28.0783013 24.7858655,28.4158195 C24.4335712,28.7533377 24.2691671,29.1872897 24.2691671,29.7176755 C24.2691671,30.2480613 24.4335712,30.6820133 24.7858655,31.0195315 C25.1381599,31.3570497 25.5609131,31.5499173 26.0776115,31.5499173 Z" id="？" fill="#DFE3E9" fill-rule="nonzero"></path>
                        </g>
                    </g>
                </g>
            </g>
        </g>
    </g>
</svg>